<svg width="390" height="844" viewBox="0 0 390 844" fill="none" xmlns="http://www.w3.org/2000/svg">
<path opacity="0.45" d="M312.282 550.14L310.135 539.465L305.522 526.001L300.643 516.169L321.29 505.404L308.138 485.75L302.292 489.269L311.493 503.018L297.307 510.414L291.167 501.239L281.652 490.331L273.299 482.892L285.967 468.369L300.708 451.471L313.099 437.266L329.851 452.185L334.59 447.398L317.521 432.197L330.19 417.674L344.931 400.776L357.322 386.571L377.742 404.757L395.598 425.226L377.07 437.992L381.14 443.304L402.65 428.483L418.376 417.647L434.942 442.403L451.06 474.886L479.012 464.39L461.287 428.668L440.839 398.112L416.515 370.227L388.697 345.453L355.018 322.247L342.393 341.113L311.694 325.108L308.358 330.862L341.715 348.253L372.511 369.472L376.581 364.16L348.239 344.632L356.913 331.67L384.275 350.523L411.457 374.731L435.227 401.979L455.208 431.838L469.608 460.859L454.557 466.51L441.022 439.233L420.272 408.225L401.21 421.359L385.01 402.788L402.022 387.638L397.282 382.851L380.27 398.001L356.686 376.998L341.668 394.215L317.844 377.799L303.477 399.268L291.085 417.786L280.436 433.7L262.265 424.226L249.465 450.023L270.592 461.038L273.927 455.284L258.498 447.24L265.391 433.349L282.798 442.424L296.932 421.304L309.323 402.787L319.739 387.222L337.246 399.284L324.855 413.489L310.114 430.387L295.373 447.285L280.632 464.184L267.964 478.706L258.693 472.319L245.612 465.499L231.733 460.287L220.634 457.585L225.007 435.846L218.205 434.615L213.832 456.354L202.464 454.992H187.536L176.168 456.354L171.753 434.406L154.481 438.611L148.34 420.686L142.333 403.153L164.386 397.783L159.444 373.212L154.419 348.234L125.896 355.18L119.755 337.254L112.608 316.396L106.601 298.863L139.36 290.887L172.914 286.867L174.338 308.343H208.724L207.503 326.741L206.051 348.629L204.599 370.517L202.93 395.682L209.84 396.094L211.278 374.419L236.749 377.47L242.34 349.674L235.538 348.444L231.166 370.183L211.714 367.853L212.962 349.042L214.414 327.154L215.634 308.755L249.749 312.842L255.34 285.045L248.538 283.815L244.166 305.554L212.628 301.776H180.84L179.361 279.476L138.06 284.424L101.098 293.424L62.6003 307.879L65.1492 313.984L100.016 300.892L106.023 318.425L113.17 339.283L120.316 360.141L128.532 384.121L135.117 382.092L128.04 361.437L149 356.333L152.642 374.442L156.366 392.956L133.469 398.532L141.754 422.715L149.905 446.505L166.333 442.505L169.366 457.585L158.267 460.287L144.388 465.499L134.347 470.734L123.697 454.82L109.33 433.351L92.5547 444.91L77.5362 427.693L57.7746 445.292L44.9169 460.032L28.838 448.953L10.129 436.062L-8.58007 423.171L-27.2891 410.28L-48.9807 395.334L-71.2871 428.668L-87.5352 461.414L-100.33 498.758L-93.7449 500.788L-81.0847 463.836L-66.6845 434.814L-49.65 443.695L-29.3848 454.261L-6.08584 466.408L-2.75017 460.654L-26.0491 448.507L-46.3143 437.941L-63.3488 429.06L-47.0854 404.757L-31.3589 415.592L-12.6499 428.483L6.05916 441.374L24.7682 454.265L43.4773 467.156L64.9871 481.977L69.057 476.664L50.5296 463.899L62.832 449.796L76.901 437.266L89.2919 451.471L106.24 470.899L111.575 466.713L96.977 449.979L107.435 442.773L117.851 458.339L128.5 474.253L119.23 480.64L108.348 490.331L98.833 501.239L90.8343 513.192L84.4784 526.001L79.8655 539.465L77.0683 553.371L76.131 567.5L77.0683 581.629L79.2155 592.303L56.3945 597.86L63.9792 619.998L70.5644 617.969L65.2581 602.481L80.9375 598.664L84.4784 608.999L90.8344 621.808L96.9743 630.983L80.8954 642.062L62.1863 654.953L46.4599 665.789L36.1184 650.335L24.8571 627.639L18.592 630.435L28.5619 650.528L11.1456 659.608L-12.1533 671.755L-8.81764 677.51L11.6324 666.848L23.9968 685.325L38.7056 702.186L21.6939 717.336L26.4337 722.123L43.4454 706.973L62.7954 724.205L77.8139 706.989L96.9392 720.166L109.564 701.3L124.695 709.189L143.975 716.428L164.06 721.319L181.191 723.371L179.943 742.182L178.722 760.581L156.693 757.942L128.467 751.069L121.455 771.534L94.6885 761.484L92.1396 767.589L119.311 777.791L113.17 795.717L104.954 819.697L111.539 821.727L118.75 800.678L146.726 807.49L178.824 811.336H207.708L208.955 830.147L210.176 848.546H172.676V855.112H214.081L251.94 850.576L288.902 841.576L327.4 827.121L324.851 821.016L286.758 835.319L254 843.295L250.358 825.187L246.634 806.672L277.97 799.042L270.689 777.791L298.069 767.51L286.653 744.503L278.191 727.448L295.867 718.233L314.993 705.055L329.697 691.96L344.185 704.862L358.355 717.482L337.523 736.034L354.337 755.308L371.427 774.9L399.657 749.76L419.919 726.532L438.799 739.541L442.869 734.228L423.989 721.22L442.76 693.169L436.914 689.65L416.518 720.13L394.6 745.256L372.062 765.327L359.672 751.123L347.003 736.6L365.941 719.734L386.923 695.681L362.431 678.805L358.361 684.117L376.888 696.883L363.095 712.695L348.925 700.076L332.067 685.063L312.839 667.939L295.829 683.087L282.565 692.227L270.294 673.889L264.448 677.408L276.719 695.745L262.351 703.236L247.106 708.96L240.095 688.495L220.307 693.313L199.83 695.767L200.697 702.281L218.166 700.188L221.89 718.703L226.223 740.246L230.556 761.788L234.199 779.897L205.638 783.319L206.506 789.833L242.382 785.535L237.358 760.558L233.634 742.044L256.314 736.521L254.592 730.161L232.334 735.581L228.691 717.472L224.967 698.958L235.519 696.389L242.8 717.639L265.305 709.189L283.476 699.715L300.252 688.157L312.839 676.947L324.639 687.456L310.57 699.986L292.15 712.678L269.158 724.665L280.388 747.299L288.665 763.979L268.545 771.534L261.468 750.879L254.883 752.908L263.099 776.888L269.106 794.421L238.614 801.846L243.556 826.417L247.199 844.526L217.086 848.133L215.866 829.734L214.21 804.769H179.26L151.468 801.44L155.759 780.106L148.958 778.876L144.667 800.209L120.894 794.421L126.901 776.888L133.043 758.962L155.393 764.405L178.286 767.147L176.821 789.235L183.732 789.647L185.401 764.483L186.853 742.595L188.101 723.784H201.899L203.147 742.595L204.817 767.759L211.727 767.347L210.057 742.182L208.401 717.217H185.068L165.36 714.856L149.479 710.989L156.49 690.524L137.496 683.392L122.633 675.643L108.911 666.189L93.8653 652.789L89.1255 657.576L101.961 669.006L87.0853 686.059L92.4203 690.245L107.296 673.192L118.916 681.198L134.542 689.345L147.896 694.359L142.894 708.96L127.649 703.236L107.202 692.576L95.0439 710.744L79.4298 699.986L60.1495 682.815L55.4097 687.602L72.4789 702.803L62.1603 714.632L45.9741 700.217L29.6095 681.457L17.7119 663.678L31.8976 656.282L44.5645 675.211L63.626 662.078L76.7004 677.066L82.0355 672.88L69.2387 658.21L84.9652 647.374L101.044 636.296L108.348 644.669L119.23 654.36L131.307 662.681L144.388 669.501L158.268 674.713L172.726 678.233L184.095 679.595L183.078 694.917L166.042 692.876L165.174 699.39L189.526 702.308L191.005 680.008H202.464L217.274 678.233L231.733 674.713L242.387 670.712L252.323 690.737L258.588 687.941L248.652 667.916L258.693 662.681L270.77 654.36L281.652 644.669L291.167 633.761L299.166 621.808L304.045 611.975L322.524 618.914L340.598 625.7L332.05 642.927L338.315 645.723L347.048 628.122L368.955 636.348L378.404 608.768L349.081 601.628L347.359 607.988L369.54 613.389L364.648 627.668L346.574 620.882L325.073 612.808L306.594 605.87L310.135 595.535L312.282 584.86L328.342 586.784L325.124 602.781L331.926 604.011L335.875 584.378L336.777 570.783H360.338L358.818 547.874L355.583 531.788L378.404 526.232L371.099 504.91L392.796 496.763L390.248 490.657L368.55 498.804L358.58 478.712L352.315 481.507L363.576 504.203L369.54 521.61L353.861 525.428L348.525 509.854L339.696 492.061L330.444 478.235L346.523 467.156L362.249 456.32L376.006 476.877L399.12 464.826L416.154 455.945L428.081 479.983L437.81 508.377L443.709 537.703L445.468 564.217H426.029H399.441V570.783H422.342L420.765 594.548L415.41 621.169L405.442 650.263L412.028 652.292L422.13 622.805L426.998 598.604L446.716 600.966L466.002 603.277L459.559 635.309L488.46 642.346L490.182 635.986L467.578 630.482L473.535 600.87L475.749 567.5L473.331 531.059L466.421 531.472L468.811 567.5L466.87 596.762L447.584 594.452L427.866 592.089L429.28 570.783H452.841L450.592 536.879L445.179 509.972L464.43 505.285L486.829 499.831L505.657 495.246L512.538 529.457L515.062 567.5L512.756 602.26L496.696 600.335L498.874 567.5L496.274 528.311L489.364 528.723L491.937 567.5L489.377 606.077L511.888 608.774L505.007 642.985L492.586 679.238L476.95 710.751L462.764 703.355L479.012 670.61L454.083 661.249L435.604 654.311L445.532 625.333L438.947 623.304L428.081 655.017L416.154 679.055L399.12 670.174L381.703 661.093L391.528 641.292L399.731 617.351L405.355 589.392L381.979 586.592L383.246 567.5L381.979 548.408L405.355 545.608L400.381 520.88L416.06 517.062L421.455 543.88L428.256 542.65L422.13 512.195L412.028 482.708L405.442 484.737L414.339 510.702L392.361 516.054L397.172 539.969L374.661 542.666L376.308 567.5L375.096 585.767L352.376 583.045L351.508 589.56L377.886 592.72L397.172 595.03L393.011 615.715L385.078 638.87L375.624 657.924L355.74 647.557L343.54 665.789L327.814 654.953L311.735 643.874L321.169 629.776L315.323 626.257L304.263 642.785L293.452 655.178L278.406 668.578L283.146 673.364L298.51 659.682L307.665 649.187L323.744 660.265L345.436 675.211L358.103 656.282L375.519 665.362L395.784 675.928L412.819 684.809L397.809 707.239L375.396 732.932L380.731 737.118L403.421 711.106L420.757 685.201L433.055 660.416L451.534 667.354L469.608 674.141L453.731 706.139L473.614 716.505L453.936 745.912L428.315 775.282L399.016 801.376L369.304 821.847L360.63 808.885L388.697 789.547L418.88 762.667L414.14 757.88L384.275 784.477L356.913 803.33L344.755 785.162L314.623 800.872L307.73 786.981L336.081 772.2L321.714 750.73L311.065 734.816L332.358 720.145L328.288 714.833L301.735 733.128L315.868 754.249L326.284 769.814L298.697 784.197L308.358 803.667L276.191 815.745L278.74 821.851L314.537 808.41L342.393 793.886L353.042 809.8L363.458 825.366L331.276 842.144L293.905 856.177L254.974 865.656L215.097 870.434H174.903L135.026 865.656L96.0954 856.177L58.7242 842.144L23.5022 823.781L-9.0152 801.376L-35.7867 777.534L-19.2463 762.804L-43.0156 735.556L-24.4883 722.79L-28.5581 717.478L-47.0854 730.243L-65.2074 703.163L-81.0846 671.164L-91.5358 640.66L-72.7075 636.075L-50.3084 630.621L-24.556 624.351L-26.278 617.991L-52.0303 624.261L-70.8586 628.846L-76.6518 600.045L-78.5931 570.783L-55.9031 570.783L-53.4775 534.221L-60.3878 533.808L-62.4052 564.217L-82.2798 564.217L-108.867 564.217V570.783L-85.5308 570.783L-83.5348 600.87L-77.5784 630.482L-100.399 636.039L-87.5352 673.586L-71.2869 706.332L-50.8394 736.888L-28.7259 762.238L-40.5265 772.748L-63.9358 745.912L-85.4726 713.728L-102.586 679.238L-116.144 639.666L-122.729 641.696L-109.037 681.66L-91.5521 716.898L-69.5485 749.779L-43.3727 779.786L-13.4375 806.445L19.7848 829.336L55.7702 848.098L93.9515 862.434L133.727 872.119L174.468 877H215.533L256.274 872.119L296.048 862.434L334.23 848.098L370.215 829.336L403.438 806.445L433.373 779.786L459.549 749.779L481.552 716.897L499.037 681.66L511.727 644.622L519.421 606.367L522 567.5L519.421 528.633L511.727 490.378L499.037 453.34L481.552 418.102L459.549 385.221L433.373 355.214L403.438 328.555L370.215 305.664L334.23 286.902L296.049 272.566L256.274 262.881L215.532 258H174.467L133.726 262.881L93.9516 272.566L55.7702 286.902L19.7847 305.664L-13.4377 328.555L-43.3727 355.214L-69.5485 385.221L-91.5522 418.102L-109.037 453.34L-121.727 490.378L-129.421 528.633L-132 567.5L-129.204 609.651L-99.168 606.052L-100.036 599.538L-122.756 602.26L-125.062 567.5L-122.756 532.74L-103.471 535.051L-77.3018 538.186L-70.2086 502.923L-60.6549 475.038L-42.581 481.824L-21.0793 489.898L-2.60031 496.836L-10.7335 520.575L-4.14836 522.604L4.92215 496.13L14.3762 477.076L31.4108 485.957L51.6759 496.523L69.0922 505.603L62.9767 517.928L57.4664 534.011L54.775 547.391L31.3995 544.591L29.676 570.571L36.5863 570.983L37.8469 551.982L53.9072 553.906L53.0054 567.5L53.9072 581.094L34.1893 583.457L7.81133 586.617L8.67914 593.132L31.8317 590.358L34.4173 603.212L15.1671 607.899L-3.66124 612.484L-8.47186 588.568L-30.983 591.265L-32.5596 567.5L-30.983 543.735L-11.6973 546.046L8.02058 548.408L6.97183 564.217H-16.3648V570.783L13.4739 570.783L15.1214 545.95L19.3879 524.739L25.3519 507.332L40.4031 512.983L34.0647 531.483L40.6499 533.512L48.9975 509.148L21.0453 498.652L12.6681 523.103L8.8884 541.894L-10.8295 539.531L-30.1152 537.221L-24.7604 510.6L-53.6616 503.562L-55.3836 509.922L-32.7801 515.426L-37.6482 539.628L-39.4973 567.5L-37.866 592.089L-61.0186 594.863L-60.1508 601.378L-33.7728 598.218L-14.0549 595.855L-9.73099 617.351L-2.6003 638.164L-21.0792 645.102L-46.0087 654.463L-32.2336 682.225L-46.4192 689.62L-61.1497 659.933L-67.4148 662.729L-49.5448 698.743L-28.8979 687.979L-13.4213 711.106L7.20096 734.747L33.3137 758.002L48.3322 740.786L66.5438 753.334L53.919 772.2L82.2698 786.981L73.8076 804.035L65.5308 820.716L35.8935 805.264L8.53198 786.411L18.8506 774.582L47.1921 794.11L51.2619 788.798L20.4665 767.579L-7.28203 742.867L-12.0218 747.654L13.5155 770.397L-1.50298 787.613L32.1761 810.819L65.6167 828.254L101.098 841.576L141.42 851.394L145.835 829.446L180.59 833.609L181.458 827.095L140.252 822.158L136 843.295L103.242 835.319L71.7959 823.511L80.0726 806.831L91.3033 784.197L63.716 769.814L74.1319 754.249L84.7813 738.335L108.042 750.462L118.074 730.244L136.829 737.286L162.869 743.627L164.591 737.267L138.973 731.029L114.578 721.869L104.917 741.339L82.4191 729.61L70.2612 747.778L47.1418 731.849L32.6786 748.429L12.2583 730.243L-5.59748 709.774L12.9298 697.008L8.85999 691.696L-9.66731 704.462L-24.6771 682.031L-36.6043 657.994L-18.5304 651.208L5.99409 641.999L-1.9393 618.844L16.889 614.259L36.1392 609.572L41.475 625.146L51.781 645.916L78.3106 632.084L74.9749 626.33L54.9066 636.793L47.9256 622.724L41.787 604.807L38.7147 589.533L61.2258 586.836L59.9431 567.5L61.008 551.447L64.1861 535.647L69.4272 520.35L76.6487 505.796L85.7366 492.215L98.7589 477.287L77.0074 457.916L72.2676 462.703L89.2792 477.853L80.1239 488.348L72.4279 499.849L55.0116 490.769L34.7464 480.203L11.2506 467.953L-0.0514069 490.731L-18.5304 483.792L-40.0321 475.719L-64.9616 466.358L-76.9284 501.286L-82.8848 530.899L-102.603 528.536L-121.888 526.226L-115.007 492.015L-102.586 455.762L-85.4727 421.272L-63.9358 389.088L-38.3154 359.718L-9.01543 333.624L20.6958 313.153L31.1117 328.718L45.245 349.838L75.3772 334.128L83.654 350.809L93.5004 370.653L103.347 390.497L111.809 407.552L97.1726 415.182L84.5478 396.316L63.073 411.113L48.1976 394.06L42.8626 398.246L57.7379 415.299L43.4454 428.027L28.9574 415.125L12.0995 400.112L-4.75837 385.098L-18.9288 372.479L3.19676 352.775L15.5877 366.979L32.4008 386.253L57.8698 368.704L70.1408 387.042L75.9869 383.523L59.7651 359.282L33.5913 377.316L20.9227 362.793L3.83186 343.201L-29.0435 372.479L-9.49817 389.885L7.35971 404.898L24.2176 419.911L43.4454 437.035L64.6889 418.116L82.6525 405.739L94.8104 423.907L114.763 413.505L123.04 430.185L134.36 453L140.625 450.204L129.305 427.389L119.458 407.545L109.612 387.701L99.7654 367.857L89.919 348.013L78.5029 325.006L47.6072 341.113L36.9578 325.199L26.5419 309.634L58.7242 292.856L96.0954 278.823L135.026 269.344L174.903 264.566H211.628L210.19 286.242L217.1 286.654L218.538 264.979L254.974 269.344L293.905 278.823L328.051 291.645L321.158 305.535L285.677 292.213L277.392 316.396L271.25 334.322L240.131 326.744L238.41 333.105L272.466 341.397L298.511 351.177L290.235 367.857L280.388 387.701L271.926 404.756L256.396 398.925L262.538 380.999L270.754 357.018L264.169 354.989L255.953 378.97L248.807 399.828L242.665 417.753L229.3 414.499L233.673 392.76L226.872 391.529L222.499 413.269L201.926 410.804L200.447 433.104H189.553L188.305 414.293L186.853 392.405L185.401 370.517L183.949 348.629L182.265 323.252L150.168 327.097L145.795 305.358L138.993 306.588L144.585 334.385L175.818 330.643L177.038 349.042L178.491 370.93L179.943 392.818L181.191 411.629L160.841 414.067L161.709 420.581L181.626 418.195L183.051 439.671H206.949L208.374 418.195L224.64 420.144L240.521 424.011L233.444 444.666L240.03 446.695L248.246 422.715L254.253 405.182L275.423 413.131L286.653 390.497L296.5 370.653L304.776 353.973L332.549 368.452L335.884 362.698L304.691 346.434L277.835 336.351L283.977 318.425L289.984 300.892L324.655 313.911L334.316 294.44L366.498 311.219L399.015 333.624L428.315 359.718L453.936 389.088L475.473 421.272L492.586 455.762L503.935 488.886L485.107 493.47L462.708 498.925L443.457 503.612L434.532 477.561L419.28 446.822L395.784 459.072L378.368 468.152L366.003 449.675L351.294 432.814L368.306 417.664L363.566 412.877L341.815 432.248L358.179 451.008L342.453 461.844L326.374 472.922L313.156 457.77L291.087 477.424L295.827 482.211L312.521 467.344L322.972 479.324L333.617 495.231L340.598 509.3L319.305 517.295L321.854 523.4L343.146 515.405L348.213 530.193L351.935 548.698L352.965 564.217H330.275L329.21 580.27L313.15 578.346L314.073 564.429L307.162 564.017L306.049 580.804L303.415 593.898L299.071 606.577L293.086 618.638L285.554 629.894L276.594 640.165L266.348 649.29L254.976 657.126L242.658 663.548L229.589 668.455L215.974 671.77L202.028 673.441H187.972L174.026 671.77L160.411 668.455L147.342 663.548L135.024 657.126L123.652 649.29L113.406 640.165L104.446 629.894L96.9139 618.638L90.929 606.577L86.5853 593.899L83.9513 580.804L83.0687 567.5L83.9513 554.196L86.5853 541.101L90.9289 528.423L96.9139 516.362L104.446 505.106L113.406 494.835L123.652 485.71L135.024 477.874L147.342 471.452L160.411 466.545L174.026 463.23L187.972 461.559H202.028L215.974 463.23L229.589 466.545L242.658 471.452L254.976 477.874L266.348 485.71L276.594 494.835L285.554 505.106L293.086 516.362L299.071 528.423L303.415 541.101L306.699 557.427L336.525 553.854L331.926 530.989L325.124 532.219L328.342 548.216L312.282 550.14Z" fill="#3C006B" fill-opacity="0.6" stroke="white" stroke-width="0.00566929"/>
</svg>
